<svg width="268" height="268" viewBox="0 0 268 268" fill="none" xmlns="http://www.w3.org/2000/svg">
	<style>
	.oculos{
		animation: animation 5s ease alternate infinite;
		
	}
	.cabelo{
		animation: animation 5s ease alternate infinite;
		
	}
	@keyframes animation {
        0%{
        	stroke-width: 1;
			stroke: white;
			fill: transparent;
            stroke-dasharray: 200, 0;
        }
        20%,70%{
            stroke-dasharray: 110, 0;
            
        }
        100%{
            stroke-dasharray: 0, 200;
            fill: white;
        }
    }
	</style>
<path class="oculos" d="M225.53 183.359C225.53 182.121 225.064 180.928 224.225 180.016C223.386 179.105 222.235 178.541 220.999 178.437C216.269 177.561 211.586 176.443 206.971 175.085C203.77 174.007 200.416 173.451 197.038 173.438C191.351 173.438 185.872 173.438 180.28 173.438C145.058 173.438 109.836 173.628 74.5951 173.097C71.2207 172.839 67.8266 173.095 64.529 173.855C62.6333 174.404 61.1737 175.502 59.3348 176.032C55.4108 177.149 51.354 177.604 47.411 178.55C43.4679 179.497 42.8992 180.33 43.013 184.117C43.013 186.521 43.2025 188.926 43.3731 191.33C43.3101 192.179 43.5468 193.022 44.0421 193.714C44.5374 194.406 45.26 194.902 46.084 195.117C49.9891 196.026 50.5957 197.029 51.1834 201.157C51.5748 205.202 51.7014 209.269 51.5625 213.331C51.6952 222.798 60.4722 231.507 69.8749 230.977C76.7941 230.579 83.7513 230.977 90.7274 230.977C98.1965 230.977 105.665 230.977 113.134 230.977C117.533 230.977 121.551 230.182 124.376 226.49C125.697 224.784 126.664 222.831 127.22 220.748C127.777 218.664 127.912 216.49 127.618 214.353C127.207 209.329 127.264 204.277 127.788 199.263C127.773 197.966 128.17 196.696 128.923 195.638C129.676 194.58 130.745 193.788 131.978 193.375C133.017 193.033 134.122 192.941 135.204 193.105C136.286 193.268 137.314 193.684 138.205 194.318C139.097 194.952 139.826 195.787 140.335 196.754C140.844 197.722 141.117 198.795 141.134 199.888C140.887 205.398 141.134 210.87 141.248 216.36C141.38 226.263 146.499 230.466 154.119 230.674C169.285 231.072 184.45 230.882 199.616 230.674C202.043 230.739 204.455 230.263 206.675 229.281C208.895 228.298 210.867 226.834 212.45 224.994C215.566 221.46 217.196 216.862 216.999 212.157C216.81 207.367 216.506 202.52 218.421 197.881C218.631 197.251 218.997 196.683 219.484 196.23C219.97 195.777 220.563 195.453 221.208 195.287C222.67 194.981 223.967 194.144 224.846 192.937C225.726 191.73 226.125 190.24 225.966 188.755C225.928 186.957 225.663 185.177 225.53 183.359Z" fill="white"/>
<path class="cabelo" d="M221.794 128.102C221.298 132.574 221.794 137.142 221.393 141.633C221.146 144.449 220.498 147.342 220.117 150.121C219.684 153.612 219.048 157.075 218.212 160.492C217.602 162.89 217.05 165.307 216.459 167.705C216.361 168.102 216.182 168.475 215.934 168.8C215.686 169.125 215.374 169.396 215.016 169.596C214.659 169.796 214.265 169.92 213.857 169.962C213.45 170.003 213.039 169.96 212.649 169.837C210.075 169.226 207.576 168.332 205.199 167.172C204.537 166.898 203.975 166.429 203.587 165.827C203.199 165.225 203.004 164.519 203.027 163.804C202.856 159.998 203.618 156.306 203.161 152.499C202.185 142.881 197.719 133.953 190.605 127.398C183.994 121.175 175.954 117.882 167.362 115.732C159.675 113.786 151.797 112.688 143.871 112.458C139.088 112.325 135.278 112.458 130.534 112.458C127.448 112.458 120.57 112.82 117.198 112.458C107.233 111.355 100.47 110.879 91.1153 107.168C90.2199 106.806 89.2101 106.578 88.3528 106.292C92.2043 109.126 96.6345 111.075 101.327 112.002C102.747 112.227 104.119 112.69 105.385 113.372C105.785 113.6 106.243 113.791 106.243 114.342C106.259 114.491 106.243 114.641 106.198 114.784C106.153 114.926 106.079 115.058 105.981 115.171C105.882 115.283 105.762 115.374 105.627 115.438C105.491 115.502 105.344 115.537 105.195 115.541C101.577 116.371 98.0668 117.617 94.7352 119.252C90.3376 120.848 86.2362 123.164 82.5991 126.104C80.9225 127.512 79.0935 128.692 77.5312 130.271C71.6401 136.084 67.4673 143.406 65.4712 151.434C64.3091 155.982 63.2993 160.359 64.4996 165.003C64.7282 165.859 64.4996 166.906 63.547 167.039C60.1366 167.743 57.0312 169.551 53.5256 169.97C52.2681 170.103 51.3536 169.818 50.9916 168.676C50.1245 166.593 49.3926 164.458 48.8007 162.281C47.1371 152.666 46.2009 142.939 46 133.183C46.1965 128.572 46.8345 123.99 47.9052 119.5C48.8112 114.425 51.076 109.69 54.4591 105.798C54.2496 105.664 54.1162 105.512 54.0209 105.531C53.0302 105.798 51.9252 106.749 51.0869 105.76C50.2486 104.77 50.9345 103.476 51.3155 102.353C52.3185 99.0938 53.9494 96.0619 56.1167 93.4276C56.8787 92.5521 56.2691 91.8861 55.888 91.1629C50.1724 80.5056 50.3439 69.4296 53.697 58.1633C53.697 57.973 53.9257 57.8017 54.3448 57.5924C55.2948 60.9656 55.7378 64.461 55.6594 67.9642C55.9619 67.7575 56.1983 67.468 56.3402 67.1305C56.4822 66.7929 56.5236 66.4216 56.4596 66.0611C56.8554 60.4576 58.5373 55.0202 61.375 50.1704C65.5849 42.9321 71.6393 36.9371 78.922 32.7952C79.1716 32.6309 79.4327 32.4846 79.7031 32.3574C80.1794 32.1862 80.732 31.7485 81.132 32.3574C81.5321 32.9664 80.9796 33.1948 80.7129 33.5564L75.9499 40.1601C75.5498 40.7501 74.8258 41.1878 75.0925 42.2725C76.2309 41.3994 77.2105 40.3372 77.9884 39.1324C81.1892 34.9456 85.4569 31.8055 89.3816 28.4371C90.4485 27.5236 91.2868 28.1897 92.0679 29.0841C94.086 31.735 96.2956 34.2347 98.679 36.5633C104.422 41.256 110.733 45.2075 117.464 48.3244C122.813 50.9556 128.436 52.9914 134.23 54.3952C142.145 56.6457 150.203 58.3561 158.35 59.5145C162.613 60.1566 166.796 61.2474 170.829 62.7688C175.094 64.0887 179.263 65.6973 183.308 67.5836C190.777 71.2375 197.388 75.9572 200.627 84.1215C201.358 85.7973 201.659 87.6287 201.503 89.4501C201.364 90.0348 201.444 90.6502 201.728 91.1799C202.012 91.7095 202.482 92.1165 203.046 92.3238C207.511 94.4385 211.424 97.5589 214.478 101.44C217.231 105.142 219.254 109.333 220.441 113.791C221.852 118.421 222.312 123.289 221.794 128.102Z" fill="white"/>
<path class="fundo" fill-rule="evenodd" clip-rule="evenodd" d="M115.843 190.948C114.399 190.216 112.79 189.867 111.173 189.937C110.62 190.026 110.054 189.964 109.534 189.759C109.013 189.553 108.558 189.211 108.215 188.769C107.555 188.091 106.759 187.561 105.88 187.212C105.057 186.763 104.108 186.599 103.181 186.745C102.255 186.892 101.403 187.341 100.758 188.022C99.6941 189.041 98.3497 189.718 96.8977 189.968C95.6991 190.232 95.0297 190.014 94.8273 189.08C94.625 188.146 95.1231 187.461 96.2595 187.134C97.0557 186.954 97.8724 186.881 98.6879 186.917C99.7183 186.872 100.152 186.593 100.037 186H112C116.418 186 120 189.582 120 194V195.484C119.679 195.291 119.346 195.118 119.003 194.965C118.977 194.955 118.95 194.945 118.923 194.935C118.474 194.768 117.957 194.576 117.649 195.105C117.322 195.665 117.726 196.054 118.1 196.397C118.514 196.765 118.932 197.131 119.35 197.498C119.566 197.689 119.783 197.879 120 198.07V204.15C119.096 204.305 118.257 204.736 117.602 205.395C116.948 206.033 117.073 206.687 117.602 207.169C117.939 207.477 118.314 207.746 118.687 208.014C118.899 208.167 119.111 208.319 119.314 208.477C119.564 208.64 119.793 208.829 120 209.039V213.01C119.974 213.02 119.948 213.029 119.921 213.038C116.216 214.112 115.485 216.914 115.578 220.339C115.641 221.278 115.641 222.219 115.578 223.157C114.502 223.696 113.286 224 112 224H105.594C104.579 221.151 104.059 218.149 104.059 215.124C104.048 214.845 104.006 214.568 103.934 214.299C103.654 212.664 102.813 212.073 101.256 212.26C99.7061 212.435 98.1432 212.471 96.5864 212.369C95.4754 212.359 94.3928 212.017 93.4774 211.387C92.562 210.758 91.8558 209.869 91.4493 208.835C90.761 207.4 90.4153 205.825 90.4397 204.234C90.464 202.643 90.8576 201.079 91.5894 199.666C92.989 196.73 95.2118 194.263 97.9874 192.567C99.064 191.813 100.352 191.419 101.666 191.441C102.98 191.464 104.254 191.902 105.304 192.692C106.632 193.758 108.155 194.557 109.787 195.042C111.006 195.305 112.274 195.215 113.443 194.782C114.612 194.349 115.634 193.591 116.388 192.598C116.901 192.054 116.683 191.415 115.843 190.948ZM79.6708 224C80.0442 223.249 80.5185 222.552 81.0817 221.927C81.2854 221.776 81.4493 221.578 81.5593 221.35C81.6692 221.122 81.7219 220.871 81.7127 220.618C81.7035 220.365 81.6327 220.118 81.5065 219.898C81.3802 219.679 81.2023 219.493 80.9883 219.358C80.2983 218.807 79.496 218.414 78.6376 218.206C76.0171 217.449 73.7673 215.753 72.3174 213.443C71.2442 211.781 69.974 210.254 68.5347 208.897C68.2009 208.488 67.7687 208.171 67.2785 207.974C66.7883 207.778 66.2564 207.71 65.7326 207.776C62.9617 207.901 62.7126 207.683 62.339 205.114C62.2056 204.366 61.8471 203.676 61.3116 203.137C60.9003 202.705 60.4622 202.298 60 201.922V207.83C60.1768 208.051 60.3548 208.272 60.5332 208.492C60.7237 208.747 60.983 208.941 61.2804 209.053C61.7914 209.265 62.2281 209.623 62.5356 210.083C62.8431 210.543 63.0076 211.084 63.0084 211.637C63.1342 212.671 63.1342 213.716 63.0084 214.75C62.7605 216.149 62.8704 217.587 63.3276 218.931C63.7849 220.276 64.5747 221.483 65.6236 222.44C66.0852 222.88 66.4835 223.375 66.8108 223.912C67.1988 223.97 67.5959 224 68 224H79.6708ZM70.8442 186H68C63.5817 186 60 189.582 60 194V197.45C60.0549 197.48 60.1082 197.513 60.1596 197.549C60.7118 197.857 61.1652 198.316 61.4672 198.872C61.7491 199.342 62.0122 199.826 62.2746 200.308C62.4904 200.705 62.7057 201.101 62.9305 201.487C63.4287 202.343 63.958 202.328 64.5962 201.674C64.75 201.525 64.8691 201.343 64.9451 201.142C65.021 200.942 65.0519 200.727 65.0355 200.513C65.0192 200.299 64.956 200.092 64.8505 199.905C64.745 199.718 64.5997 199.557 64.425 199.432C64.3139 199.321 64.1954 199.213 64.0764 199.105C63.5779 198.65 63.0706 198.187 63.0706 197.471C62.8453 195.796 63.2383 194.097 64.1759 192.692C65.3235 191.185 66.9298 190.093 68.7526 189.578C69.1886 189.497 69.5887 189.283 69.8981 188.965C70.2075 188.648 70.4109 188.242 70.4805 187.804C70.6051 187.233 70.7158 186.662 70.8264 186.092C70.8324 186.061 70.8383 186.031 70.8442 186Z" fill="black" fill-opacity="0.8"/>
<path fill-rule="evenodd" clip-rule="evenodd" d="M204.843 190.948C203.399 190.216 201.79 189.867 200.173 189.937C199.62 190.026 199.054 189.964 198.534 189.759C198.013 189.553 197.558 189.211 197.215 188.769C196.555 188.091 195.759 187.561 194.88 187.212C194.057 186.763 193.108 186.599 192.181 186.745C191.255 186.892 190.403 187.341 189.758 188.022C188.694 189.041 187.35 189.718 185.898 189.968C184.699 190.232 184.03 190.014 183.827 189.08C183.625 188.146 184.123 187.461 185.259 187.134C186.056 186.954 186.872 186.881 187.688 186.917C188.718 186.872 189.152 186.593 189.037 186H201C205.418 186 209 189.582 209 194V195.484C208.679 195.291 208.346 195.118 208.003 194.965C207.977 194.955 207.95 194.945 207.923 194.935C207.474 194.768 206.957 194.576 206.649 195.105C206.322 195.665 206.726 196.054 207.1 196.397C207.514 196.765 207.932 197.131 208.35 197.498C208.566 197.689 208.783 197.879 209 198.07V204.15C208.096 204.305 207.257 204.736 206.602 205.395C205.948 206.033 206.073 206.687 206.602 207.169C206.939 207.477 207.314 207.746 207.687 208.014C207.899 208.167 208.111 208.319 208.314 208.477C208.564 208.64 208.793 208.829 209 209.039V213.01C208.974 213.02 208.948 213.029 208.921 213.038C205.216 214.112 204.485 216.914 204.578 220.339C204.641 221.278 204.641 222.219 204.578 223.157C203.502 223.696 202.286 224 201 224H194.594C193.579 221.151 193.059 218.149 193.059 215.124C193.048 214.845 193.006 214.568 192.934 214.299C192.654 212.664 191.813 212.073 190.256 212.26C188.706 212.435 187.143 212.471 185.586 212.369C184.475 212.359 183.393 212.017 182.477 211.387C181.562 210.758 180.856 209.869 180.449 208.835C179.761 207.4 179.415 205.825 179.44 204.234C179.464 202.643 179.858 201.079 180.589 199.666C181.989 196.73 184.212 194.263 186.987 192.567C188.064 191.813 189.352 191.419 190.666 191.441C191.98 191.464 193.254 191.902 194.304 192.692C195.632 193.758 197.155 194.557 198.787 195.042C200.006 195.305 201.274 195.215 202.443 194.782C203.612 194.349 204.634 193.591 205.388 192.598C205.901 192.054 205.683 191.415 204.843 190.948ZM168.671 224C169.044 223.249 169.519 222.552 170.082 221.927C170.285 221.776 170.449 221.578 170.559 221.35C170.669 221.122 170.722 220.871 170.713 220.618C170.703 220.365 170.633 220.118 170.506 219.898C170.38 219.679 170.202 219.493 169.988 219.358C169.298 218.807 168.496 218.414 167.638 218.206C165.017 217.449 162.767 215.753 161.317 213.443C160.244 211.781 158.974 210.254 157.535 208.897C157.201 208.488 156.769 208.171 156.278 207.974C155.788 207.778 155.256 207.71 154.733 207.776C151.962 207.901 151.713 207.683 151.339 205.114C151.206 204.366 150.847 203.676 150.312 203.137C149.9 202.705 149.462 202.299 149 201.922V207.83C149.177 208.051 149.355 208.272 149.533 208.492C149.724 208.747 149.983 208.941 150.28 209.053C150.791 209.265 151.228 209.623 151.536 210.083C151.843 210.543 152.008 211.084 152.008 211.637C152.134 212.671 152.134 213.716 152.008 214.75C151.761 216.149 151.87 217.587 152.328 218.931C152.785 220.276 153.575 221.483 154.624 222.44C155.085 222.88 155.483 223.375 155.811 223.912C156.199 223.97 156.596 224 157 224H168.671ZM159.844 186L157 186C152.582 186 149 189.582 149 194V197.45C149.055 197.48 149.108 197.513 149.16 197.549C149.712 197.857 150.165 198.316 150.467 198.872C150.749 199.342 151.012 199.826 151.275 200.308C151.49 200.705 151.706 201.101 151.931 201.487C152.429 202.343 152.958 202.328 153.596 201.674C153.75 201.525 153.869 201.343 153.945 201.142C154.021 200.942 154.052 200.727 154.036 200.513C154.019 200.299 153.956 200.092 153.85 199.905C153.745 199.718 153.6 199.557 153.425 199.432C153.314 199.321 153.195 199.213 153.076 199.105C152.578 198.65 152.071 198.187 152.071 197.471C151.845 195.796 152.238 194.097 153.176 192.692C154.323 191.185 155.93 190.093 157.753 189.578C158.189 189.497 158.589 189.283 158.898 188.965C159.207 188.648 159.411 188.242 159.481 187.804C159.605 187.233 159.716 186.662 159.826 186.091C159.832 186.061 159.838 186.03 159.844 186Z" fill="black" fill-opacity="0.8"/>
</svg>
